<?xml version="1.0" encoding="UTF-8" standalone="no"?>
<!-- Created with Inkscape (http://www.inkscape.org/) -->
<svg
   xmlns:dc="http://purl.org/dc/elements/1.1/"
   xmlns:cc="http://web.resource.org/cc/"
   xmlns:rdf="http://www.w3.org/1999/02/22-rdf-syntax-ns#"
   xmlns:svg="http://www.w3.org/2000/svg"
   xmlns="http://www.w3.org/2000/svg"
   xmlns:sodipodi="http://sodipodi.sourceforge.net/DTD/sodipodi-0.dtd"
   xmlns:inkscape="http://www.inkscape.org/namespaces/inkscape"
   width="744.09448"
   height="362"
   id="svg2"
   sodipodi:version="0.32"
   inkscape:version="0.45.1"
   version="1.0"
   inkscape:export-filename="/home/gomo/facultad/algo3/tp2/code/informe/figuras/ej2/sentido_horario.png"
   inkscape:export-xdpi="100"
   inkscape:export-ydpi="100"
   sodipodi:docbase="/home/gomo/facultad/algo3/tp2/code/informe/figuras/ej2"
   sodipodi:docname="sentido_horario.svg"
   inkscape:output_extension="org.inkscape.output.svg.inkscape">
  <defs
     id="defs4" />
  <sodipodi:namedview
     id="base"
     pagecolor="#ffffff"
     bordercolor="#666666"
     borderopacity="1.0"
     inkscape:pageopacity="1"
     inkscape:pageshadow="2"
     inkscape:zoom="0.98994949"
     inkscape:cx="618.65584"
     inkscape:cy="190.17275"
     inkscape:document-units="px"
     inkscape:current-layer="g3229"
     height="362px"
     width="744.09448px"
     inkscape:window-width="1563"
     inkscape:window-height="868"
     inkscape:window-x="112"
     inkscape:window-y="178" />
  <metadata
     id="metadata7">
    <rdf:RDF>
      <cc:Work
         rdf:about="">
        <dc:format>image/svg+xml</dc:format>
        <dc:type
           rdf:resource="http://purl.org/dc/dcmitype/StillImage" />
      </cc:Work>
    </rdf:RDF>
  </metadata>
  <g
     inkscape:label="Capa 1"
     inkscape:groupmode="layer"
     id="layer1">
    <g
       id="g3204"
       transform="matrix(1.2878795,0,0,1.2878795,-53.717474,-43.010194)">
      <path
         transform="matrix(0.4056318,0,0,0.4056318,35.590832,32.760583)"
         d="M 626.29459 340.70972 A 240.92139 240.92139 0 1 1  144.45181,340.70972 A 240.92139 240.92139 0 1 1  626.29459 340.70972 z"
         sodipodi:ry="240.92139"
         sodipodi:rx="240.92139"
         sodipodi:cy="340.70972"
         sodipodi:cx="385.3732"
         id="path3134"
         style="opacity:1;fill:none;fill-opacity:1;fill-rule:nonzero;stroke:#000000;stroke-width:1.60000002;stroke-miterlimit:4;stroke-dasharray:none;stroke-opacity:1"
         sodipodi:type="arc" />
      <g
         transform="matrix(0.4056318,0,0,0.4056318,48.702833,33.170333)"
         id="g3176">
        <path
           sodipodi:type="arc"
           style="opacity:1;fill:#ffb7b7;fill-opacity:1;fill-rule:nonzero;stroke:#000000;stroke-width:4.80000019;stroke-miterlimit:4;stroke-dasharray:none;stroke-opacity:1"
           id="path2162"
           sodipodi:cx="258.59906"
           sodipodi:cy="200.80359"
           sodipodi:rx="36.36549"
           sodipodi:ry="36.36549"
           d="M 294.96455 200.80359 A 36.36549 36.36549 0 1 1  222.23357,200.80359 A 36.36549 36.36549 0 1 1  294.96455 200.80359 z"
           transform="translate(-12.12183,-73.741136)" />
        <text
           xml:space="preserve"
           style="font-size:32px;font-style:normal;font-variant:normal;font-weight:normal;font-stretch:normal;text-align:start;line-height:125%;writing-mode:lr-tb;text-anchor:start;fill:#000000;fill-opacity:1;stroke:none;stroke-width:1px;stroke-linecap:butt;stroke-linejoin:miter;stroke-opacity:1;font-family:Century Schoolbook L"
           x="242.43661"
           y="138.17413"
           id="text3136"
           sodipodi:linespacing="125%"><tspan
             sodipodi:role="line"
             id="tspan3138"
             x="242.43661"
             y="138.17413">i</tspan></text>
      </g>
      <g
         transform="translate(-6.1747625,93.331424)"
         id="g3181">
        <path
           sodipodi:type="arc"
           style="opacity:1;fill:#ffb7b7;fill-opacity:1;fill-rule:nonzero;stroke:#000000;stroke-width:4.80000019;stroke-miterlimit:4;stroke-dasharray:none;stroke-opacity:1"
           id="path3140"
           sodipodi:cx="258.59906"
           sodipodi:cy="200.80359"
           sodipodi:rx="36.36549"
           sodipodi:ry="36.36549"
           d="M 294.96455 200.80359 A 36.36549 36.36549 0 1 1  222.23357,200.80359 A 36.36549 36.36549 0 1 1  294.96455 200.80359 z"
           transform="matrix(0.4056318,0,0,0.4056318,183.94885,29.983914)" />
        <text
           xml:space="preserve"
           style="font-size:12.98021889px;font-style:normal;font-variant:normal;font-weight:normal;font-stretch:normal;text-align:start;line-height:125%;writing-mode:lr-tb;text-anchor:start;fill:#000000;fill-opacity:1;stroke:none;stroke-width:1px;stroke-linecap:butt;stroke-linejoin:miter;stroke-opacity:1;font-family:Century Schoolbook L"
           x="287.20587"
           y="115.9435"
           id="text3142"
           sodipodi:linespacing="125%"><tspan
             sodipodi:role="line"
             id="tspan3144"
             x="287.20587"
             y="115.9435">j</tspan></text>
      </g>
      <g
         style="fill:#ffb7b7;fill-opacity:1"
         transform="matrix(0.4056318,0,0,0.4056318,84.760839,-59.433173)"
         id="g3171">
        <path
           sodipodi:type="arc"
           style="opacity:1;fill:#ffb7b7;fill-opacity:1;fill-rule:nonzero;stroke:#000000;stroke-width:4.80000019;stroke-miterlimit:4;stroke-dasharray:none;stroke-opacity:1"
           id="path3146"
           sodipodi:cx="258.59906"
           sodipodi:cy="200.80359"
           sodipodi:rx="36.36549"
           sodipodi:ry="36.36549"
           d="M 294.96455 200.80359 A 36.36549 36.36549 0 1 1  222.23357,200.80359 A 36.36549 36.36549 0 1 1  294.96455 200.80359 z"
           transform="translate(54.548229,138.3909)" />
        <text
           xml:space="preserve"
           style="font-size:32px;font-style:normal;font-variant:normal;font-weight:normal;font-stretch:normal;text-align:start;line-height:125%;writing-mode:lr-tb;text-anchor:start;fill:#000000;fill-opacity:1;stroke:none;stroke-width:1px;stroke-linecap:butt;stroke-linejoin:miter;stroke-opacity:1;font-family:Century Schoolbook L"
           x="291.93405"
           y="350.30615"
           id="text3148"
           sodipodi:linespacing="125%"><tspan
             sodipodi:role="line"
             id="tspan3150"
             x="291.93405"
             y="350.30615">i+1</tspan></text>
      </g>
      <g
         transform="matrix(0.4056318,0,0,0.4056318,110.57509,62.262585)"
         id="g3166">
        <path
           sodipodi:type="arc"
           style="opacity:1;fill:#ffb7b7;fill-opacity:1;fill-rule:nonzero;stroke:#000000;stroke-width:4.80000019;stroke-miterlimit:4;stroke-dasharray:none;stroke-opacity:1"
           id="path3152"
           sodipodi:cx="258.59906"
           sodipodi:cy="200.80359"
           sodipodi:rx="36.36549"
           sodipodi:ry="36.36549"
           d="M 294.96455 200.80359 A 36.36549 36.36549 0 1 1  222.23357,200.80359 A 36.36549 36.36549 0 1 1  294.96455 200.80359 z"
           transform="translate(177.78684,31.314727)" />
        <text
           xml:space="preserve"
           style="font-size:32px;font-style:normal;font-variant:normal;font-weight:normal;font-stretch:normal;text-align:start;line-height:125%;writing-mode:lr-tb;text-anchor:start;fill:#000000;fill-opacity:1;stroke:none;stroke-width:1px;stroke-linecap:butt;stroke-linejoin:miter;stroke-opacity:1;font-family:Century Schoolbook L"
           x="420.22345"
           y="242.21985"
           id="text3154"
           sodipodi:linespacing="125%"><tspan
             sodipodi:role="line"
             id="tspan3156"
             x="420.22345"
             y="242.21985">j-1</tspan></text>
      </g>
      <path
         transform="matrix(0.4056318,0,0,0.4056318,159.33534,25.38508)"
         d="M 294.96455 200.80359 A 36.36549 36.36549 0 1 1  222.23357,200.80359 A 36.36549 36.36549 0 1 1  294.96455 200.80359 z"
         sodipodi:ry="36.36549"
         sodipodi:rx="36.36549"
         sodipodi:cy="200.80359"
         sodipodi:cx="258.59906"
         id="path3158"
         style="opacity:1;fill:#ffb7b7;fill-opacity:1;fill-rule:nonzero;stroke:#000000;stroke-width:4.80000019;stroke-miterlimit:4;stroke-dasharray:none;stroke-opacity:1"
         sodipodi:type="arc" />
      <path
         transform="matrix(0.4056318,0,0,0.4056318,-0.4671745,45.462833)"
         d="M 294.96455 200.80359 A 36.36549 36.36549 0 1 1  222.23357,200.80359 A 36.36549 36.36549 0 1 1  294.96455 200.80359 z"
         sodipodi:ry="36.36549"
         sodipodi:rx="36.36549"
         sodipodi:cy="200.80359"
         sodipodi:cx="258.59906"
         id="path3186"
         style="opacity:1;fill:#ffffff;fill-opacity:1;fill-rule:nonzero;stroke:#000000;stroke-width:4.80000019;stroke-miterlimit:4;stroke-dasharray:none;stroke-opacity:1"
         sodipodi:type="arc" />
      <path
         transform="matrix(0.4056318,0,0,0.4056318,-7.8426755,109.38383)"
         d="M 294.96455 200.80359 A 36.36549 36.36549 0 1 1  222.23357,200.80359 A 36.36549 36.36549 0 1 1  294.96455 200.80359 z"
         sodipodi:ry="36.36549"
         sodipodi:rx="36.36549"
         sodipodi:cy="200.80359"
         sodipodi:cx="258.59906"
         id="path3188"
         style="opacity:1;fill:#ffffff;fill-opacity:1;fill-rule:nonzero;stroke:#000000;stroke-width:4.80000019;stroke-miterlimit:4;stroke-dasharray:none;stroke-opacity:1"
         sodipodi:type="arc" />
      <path
         transform="matrix(0.4056318,0,0,0.4056318,19.200827,159.78309)"
         d="M 294.96455 200.80359 A 36.36549 36.36549 0 1 1  222.23357,200.80359 A 36.36549 36.36549 0 1 1  294.96455 200.80359 z"
         sodipodi:ry="36.36549"
         sodipodi:rx="36.36549"
         sodipodi:cy="200.80359"
         sodipodi:cx="258.59906"
         id="path3190"
         style="opacity:1;fill:#ffffff;fill-opacity:1;fill-rule:nonzero;stroke:#000000;stroke-width:4.80000019;stroke-miterlimit:4;stroke-dasharray:none;stroke-opacity:1"
         sodipodi:type="arc" />
      <path
         transform="matrix(0.4056318,0,0,0.4056318,79.434079,186.41684)"
         d="M 294.96455 200.80359 A 36.36549 36.36549 0 1 1  222.23357,200.80359 A 36.36549 36.36549 0 1 1  294.96455 200.80359 z"
         sodipodi:ry="36.36549"
         sodipodi:rx="36.36549"
         sodipodi:cy="200.80359"
         sodipodi:cx="258.59906"
         id="path3192"
         style="opacity:1;fill:#ffffff;fill-opacity:1;fill-rule:nonzero;stroke:#000000;stroke-width:4.80000019;stroke-miterlimit:4;stroke-dasharray:none;stroke-opacity:1"
         sodipodi:type="arc" />
      <path
         transform="matrix(0.4056318,0,0,0.4056318,142.53559,170.02684)"
         d="M 294.96455 200.80359 A 36.36549 36.36549 0 1 1  222.23357,200.80359 A 36.36549 36.36549 0 1 1  294.96455 200.80359 z"
         sodipodi:ry="36.36549"
         sodipodi:rx="36.36549"
         sodipodi:cy="200.80359"
         sodipodi:cx="258.59906"
         id="path3194"
         style="opacity:1;fill:#ffffff;fill-opacity:1;fill-rule:nonzero;stroke:#000000;stroke-width:4.80000019;stroke-miterlimit:4;stroke-dasharray:none;stroke-opacity:1"
         sodipodi:type="arc" />
    </g>
    <g
       id="g3229"
       transform="translate(338.25122,3.2465046)">
      <g
         id="g3289"
         transform="matrix(1.2878795,0,0,1.2878795,-54.220722,-46.256699)">
        <path
           sodipodi:type="arc"
           style="opacity:1;fill:none;fill-opacity:1;fill-rule:nonzero;stroke:#000000;stroke-width:1.60000002;stroke-miterlimit:4;stroke-dasharray:none;stroke-opacity:1"
           id="path3231"
           sodipodi:cx="385.3732"
           sodipodi:cy="340.70972"
           sodipodi:rx="240.92139"
           sodipodi:ry="240.92139"
           d="M 626.29459 340.70972 A 240.92139 240.92139 0 1 1  144.45181,340.70972 A 240.92139 240.92139 0 1 1  626.29459 340.70972 z"
           transform="matrix(0.4056318,0,0,0.4056318,35.590832,32.760583)" />
        <path
           sodipodi:type="arc"
           style="fill:#ffb7b7;fill-opacity:1;fill-rule:nonzero;stroke:#000000;stroke-width:4.80000019;stroke-miterlimit:4;stroke-dasharray:none;stroke-opacity:1"
           id="path3235"
           sodipodi:cx="258.59906"
           sodipodi:cy="200.80359"
           sodipodi:rx="36.36549"
           sodipodi:ry="36.36549"
           d="M 294.96455 200.80359 A 36.36549 36.36549 0 1 1  222.23357,200.80359 A 36.36549 36.36549 0 1 1  294.96455 200.80359 z"
           transform="matrix(0.4056318,0,0,0.4056318,43.785833,3.2585833)" />
        <path
           sodipodi:type="arc"
           style="fill:#ffb7b7;fill-opacity:1;fill-rule:nonzero;stroke:#000000;stroke-width:4.80000019;stroke-miterlimit:4;stroke-dasharray:none;stroke-opacity:1"
           id="path3243"
           sodipodi:cx="258.59906"
           sodipodi:cy="200.80359"
           sodipodi:rx="36.36549"
           sodipodi:ry="36.36549"
           d="M 294.96455 200.80359 A 36.36549 36.36549 0 1 1  222.23357,200.80359 A 36.36549 36.36549 0 1 1  294.96455 200.80359 z"
           transform="matrix(0.4056318,0,0,0.4056318,177.77409,123.31534)" />
        <text
           xml:space="preserve"
           style="font-size:12.98021889px;font-style:normal;font-variant:normal;font-weight:normal;font-stretch:normal;text-align:start;line-height:125%;writing-mode:lr-tb;text-anchor:start;fill:#000000;fill-opacity:1;stroke:none;stroke-width:1px;stroke-linecap:butt;stroke-linejoin:miter;stroke-opacity:1;font-family:Century Schoolbook L"
           x="147.10252"
           y="86.774918"
           id="text3245"
           sodipodi:linespacing="125%"><tspan
             sodipodi:role="line"
             id="tspan3247"
             x="147.10252"
             y="86.774918">j</tspan></text>
        <path
           sodipodi:type="arc"
           style="fill:#ffffff;fill-opacity:1;fill-rule:nonzero;stroke:#000000;stroke-width:4.80000019;stroke-miterlimit:4;stroke-dasharray:none;stroke-opacity:1"
           id="path3251"
           sodipodi:cx="258.59906"
           sodipodi:cy="200.80359"
           sodipodi:rx="36.36549"
           sodipodi:ry="36.36549"
           d="M 294.96455 200.80359 A 36.36549 36.36549 0 1 1  222.23357,200.80359 A 36.36549 36.36549 0 1 1  294.96455 200.80359 z"
           transform="matrix(0.4056318,0,0,0.4056318,106.88734,-3.2974231)" />
        <path
           sodipodi:type="arc"
           style="fill:#ffffff;fill-opacity:1;fill-rule:nonzero;stroke:#000000;stroke-width:4.80000019;stroke-miterlimit:4;stroke-dasharray:none;stroke-opacity:1"
           id="path3259"
           sodipodi:cx="258.59906"
           sodipodi:cy="200.80359"
           sodipodi:rx="36.36549"
           sodipodi:ry="36.36549"
           d="M 294.96455 200.80359 A 36.36549 36.36549 0 1 1  222.23357,200.80359 A 36.36549 36.36549 0 1 1  294.96455 200.80359 z"
           transform="matrix(0.4056318,0,0,0.4056318,182.69109,74.964834)" />
        <path
           sodipodi:type="arc"
           style="opacity:1;fill:#ffffff;fill-opacity:1;fill-rule:nonzero;stroke:#000000;stroke-width:4.80000019;stroke-miterlimit:4;stroke-dasharray:none;stroke-opacity:1"
           id="path3265"
           sodipodi:cx="258.59906"
           sodipodi:cy="200.80359"
           sodipodi:rx="36.36549"
           sodipodi:ry="36.36549"
           d="M 294.96455 200.80359 A 36.36549 36.36549 0 1 1  222.23357,200.80359 A 36.36549 36.36549 0 1 1  294.96455 200.80359 z"
           transform="matrix(0.4056318,0,0,0.4056318,159.33534,25.38508)" />
        <path
           sodipodi:type="arc"
           style="opacity:1;fill:#ffb7b7;fill-opacity:1;fill-rule:nonzero;stroke:#000000;stroke-width:4.80000019;stroke-miterlimit:4;stroke-dasharray:none;stroke-opacity:1"
           id="path3267"
           sodipodi:cx="258.59906"
           sodipodi:cy="200.80359"
           sodipodi:rx="36.36549"
           sodipodi:ry="36.36549"
           d="M 294.96455 200.80359 A 36.36549 36.36549 0 1 1  222.23357,200.80359 A 36.36549 36.36549 0 1 1  294.96455 200.80359 z"
           transform="matrix(0.4056318,0,0,0.4056318,-0.4671745,45.462833)" />
        <path
           sodipodi:type="arc"
           style="opacity:1;fill:#ffb7b7;fill-opacity:1;fill-rule:nonzero;stroke:#000000;stroke-width:4.80000019;stroke-miterlimit:4;stroke-dasharray:none;stroke-opacity:1"
           id="path3269"
           sodipodi:cx="258.59906"
           sodipodi:cy="200.80359"
           sodipodi:rx="36.36549"
           sodipodi:ry="36.36549"
           d="M 294.96455 200.80359 A 36.36549 36.36549 0 1 1  222.23357,200.80359 A 36.36549 36.36549 0 1 1  294.96455 200.80359 z"
           transform="matrix(0.4056318,0,0,0.4056318,-7.8426755,109.38383)" />
        <path
           sodipodi:type="arc"
           style="opacity:1;fill:#ffb7b7;fill-opacity:1;fill-rule:nonzero;stroke:#000000;stroke-width:4.80000019;stroke-miterlimit:4;stroke-dasharray:none;stroke-opacity:1"
           id="path3271"
           sodipodi:cx="258.59906"
           sodipodi:cy="200.80359"
           sodipodi:rx="36.36549"
           sodipodi:ry="36.36549"
           d="M 294.96455 200.80359 A 36.36549 36.36549 0 1 1  222.23357,200.80359 A 36.36549 36.36549 0 1 1  294.96455 200.80359 z"
           transform="matrix(0.4056318,0,0,0.4056318,19.200827,159.78309)" />
        <path
           sodipodi:type="arc"
           style="opacity:1;fill:#ffb7b7;fill-opacity:1;fill-rule:nonzero;stroke:#000000;stroke-width:4.80000019;stroke-miterlimit:4;stroke-dasharray:none;stroke-opacity:1"
           id="path3273"
           sodipodi:cx="258.59906"
           sodipodi:cy="200.80359"
           sodipodi:rx="36.36549"
           sodipodi:ry="36.36549"
           d="M 294.96455 200.80359 A 36.36549 36.36549 0 1 1  222.23357,200.80359 A 36.36549 36.36549 0 1 1  294.96455 200.80359 z"
           transform="matrix(0.4056318,0,0,0.4056318,79.434079,186.41684)" />
        <path
           sodipodi:type="arc"
           style="opacity:1;fill:#ffb7b7;fill-opacity:1;fill-rule:nonzero;stroke:#000000;stroke-width:4.80000019;stroke-miterlimit:4;stroke-dasharray:none;stroke-opacity:1"
           id="path3275"
           sodipodi:cx="258.59906"
           sodipodi:cy="200.80359"
           sodipodi:rx="36.36549"
           sodipodi:ry="36.36549"
           d="M 294.96455 200.80359 A 36.36549 36.36549 0 1 1  222.23357,200.80359 A 36.36549 36.36549 0 1 1  294.96455 200.80359 z"
           transform="matrix(0.4056318,0,0,0.4056318,142.53559,170.02684)" />
        <text
           xml:space="preserve"
           style="font-size:12.98021793px;font-style:normal;font-variant:normal;font-weight:normal;font-stretch:normal;text-align:start;line-height:125%;writing-mode:lr-tb;text-anchor:start;fill:#000000;fill-opacity:1;stroke:none;stroke-width:1px;stroke-linecap:butt;stroke-linejoin:miter;stroke-opacity:1;font-family:Century Schoolbook L"
           x="280.25711"
           y="209.21815"
           id="text3237"
           sodipodi:linespacing="125%"><tspan
             sodipodi:role="line"
             id="tspan3239"
             x="280.25711"
             y="209.21815">i</tspan></text>
        <text
           xml:space="preserve"
           style="font-size:12.98021793px;font-style:normal;font-variant:normal;font-weight:normal;font-stretch:normal;text-align:start;line-height:125%;writing-mode:lr-tb;text-anchor:start;fill:#000000;fill-opacity:1;stroke:none;stroke-width:1px;stroke-linecap:butt;stroke-linejoin:miter;stroke-opacity:1;font-family:Century Schoolbook L"
           x="97.102524"
           y="130.15753"
           id="text3261"
           sodipodi:linespacing="125%"><tspan
             sodipodi:role="line"
             id="tspan3263"
             x="97.102524"
             y="130.15753">j-1</tspan></text>
        <text
           xml:space="preserve"
           style="font-size:12.98021793px;font-style:normal;font-variant:normal;font-weight:normal;font-stretch:normal;text-align:start;line-height:125%;writing-mode:lr-tb;text-anchor:start;fill:#000000;fill-opacity:1;stroke:none;stroke-width:1px;stroke-linecap:butt;stroke-linejoin:miter;stroke-opacity:1;font-family:Century Schoolbook L"
           x="238.17857"
           y="256.23358"
           id="text3253"
           sodipodi:linespacing="125%"><tspan
             sodipodi:role="line"
             id="tspan3255"
             x="238.17857"
             y="256.23358">i+1</tspan></text>
      </g>
    </g>
  </g>
</svg>
